<svg xmlns="http://www.w3.org/2000/svg" viewBox="0 0 800 600">
  <rect width="800" height="600" fill="#0e7a56"/>
  <text x="770" y="580" text-anchor="end" font-family="Arial, sans-serif" font-size="220" font-weight="700" fill="#ffffff" opacity="0.08">03</text>
  <g stroke="#f5f7f6" stroke-width="7" stroke-linecap="round" fill="none">
    <!-- cloud -->
    <path d="M312 262 A44 44 0 0 1 362 200 A58 58 0 0 1 472 188 A46 46 0 0 1 502 262 Z"/>
    <!-- steam rising into cloud -->
    <path d="M368 330 C360 314 372 302 366 288"/>
    <path d="M400 336 C392 318 404 306 398 290"/>
    <path d="M432 330 C424 314 436 302 430 288"/>
    <!-- pot -->
    <path d="M340 376 H460"/>
    <path d="M352 376 V420 A28 28 0 0 0 380 448 H420 A28 28 0 0 0 448 420 V376"/>
    <line x1="316" y1="392" x2="340" y2="392"/>
    <line x1="460" y1="392" x2="484" y2="392"/>
  </g>
</svg>
